<svg
              width="131"
              height="74"
              viewBox="0 0 131 74"
              xmlns="http://www.w3.org/2000/svg"
            >
              <g id="cart">
                <path
                  id="Vector 1"
                  d="M27.7918 8H3.75C1.67893 8 0 6.32107 0 4.25C0 2.17893 1.67893 0.5 3.75 0.5H32.241C34.5401 0.5 36.6369 1.81368 37.6399 3.88236L58.3601 46.6176C59.3631 48.6863 61.4599 50 63.759 50H103.049C105.692 50 108.024 48.2699 108.791 45.74L121.693 3.16265C122.172 1.58137 123.63 0.5 125.282 0.5C127.846 0.5 129.654 3.0154 128.837 5.44562L112.875 52.9125C112.053 55.3548 109.764 57 107.188 57H59.7082C57.4356 57 55.358 55.716 54.3416 53.6833L33.1584 11.3167C32.142 9.28401 30.0644 8 27.7918 8Z"
                  fill="white"
                />
                <ellipse
                  id="Ellipse 1"
                  cx="65"
                  cy="65.5"
                  rx="9"
                  ry="8.5"
                  fill="white"
                />
                <ellipse
                  id="Ellipse 2"
                  cx="104"
                  cy="65.5"
                  rx="9"
                  ry="8.5"
                  fill="white"
                />
              </g>
            </svg>