<svg width="13" height="16" viewBox="0 0 32 39" fill="none" xmlns="http://www.w3.org/2000/svg">
<path d="M31 16.0585C31 27.511 16.2754 37.3274 16.2754 37.3274C16.2754 37.3274 1.55078 27.511 1.55078 16.0585C1.55078 12.1533 3.10212 8.40803 5.86352 5.64663C8.62492 2.88523 12.3702 1.33389 16.2754 1.33389C20.1806 1.33389 23.9259 2.88523 26.6873 5.64663C29.4487 8.40803 31 12.1533 31 16.0585Z" stroke="white" stroke-width="2" stroke-linecap="round" stroke-linejoin="round"/>
<path d="M16.2754 20.9667C18.9861 20.9667 21.1836 18.7692 21.1836 16.0585C21.1836 13.3478 18.9861 11.1503 16.2754 11.1503C13.5647 11.1503 11.3672 13.3478 11.3672 16.0585C11.3672 18.7692 13.5647 20.9667 16.2754 20.9667Z" stroke="white" stroke-width="2" stroke-linecap="round" stroke-linejoin="round"/>
</svg>
